<svg xmlns="http://www.w3.org/2000/svg" width="1200" height="760" viewBox="0 0 1200 760" role="img"><rect width="1200" height="760" fill="#fff"/><text x="55" y="54" font-family="Arial,sans-serif" font-size="30" font-weight="700" fill="#0e3455">Как исходная статья проверяла условие «не агентства»</text><text x="650" y="96" font-family="Arial" font-size="18" font-weight="700">Персональный формат</text><text x="905" y="96" font-family="Arial" font-size="18" font-weight="700">Пограничность</text><text x="55" y="155" font-family="Arial" font-size="19" fill="#22313f">1. Алексей Яковлев</text><rect x="650" y="125" width="190" height="38" rx="8" fill="#edf1f5"/><text x="745" y="151" text-anchor="middle" font-family="Arial" font-size="18" fill="#22313f">да</text><rect x="900" y="125" width="240" height="38" rx="8" fill="#f5f7fa"/><text x="1020" y="151" text-anchor="middle" font-family="Arial" font-size="17" fill="#22313f">нет</text><text x="55" y="210" font-family="Arial" font-size="19" fill="#22313f">2. Максим Мельников</text><rect x="650" y="180" width="190" height="38" rx="8" fill="#edf1f5"/><text x="745" y="206" text-anchor="middle" font-family="Arial" font-size="18" fill="#22313f">частично</text><rect x="900" y="180" width="240" height="38" rx="8" fill="#f5f7fa"/><text x="1020" y="206" text-anchor="middle" font-family="Arial" font-size="17" fill="#22313f">команда</text><text x="55" y="265" font-family="Arial" font-size="19" fill="#22313f">3. Александр Тригуб</text><rect x="650" y="235" width="190" height="38" rx="8" fill="#edf1f5"/><text x="745" y="261" text-anchor="middle" font-family="Arial" font-size="18" fill="#22313f">да</text><rect x="900" y="235" width="240" height="38" rx="8" fill="#f5f7fa"/><text x="1020" y="261" text-anchor="middle" font-family="Arial" font-size="17" fill="#22313f">нет</text><text x="55" y="320" font-family="Arial" font-size="19" fill="#22313f">4. Александр Ознобишин</text><rect x="650" y="290" width="190" height="38" rx="8" fill="#edf1f5"/><text x="745" y="316" text-anchor="middle" font-family="Arial" font-size="18" fill="#22313f">да</text><rect x="900" y="290" width="240" height="38" rx="8" fill="#f5f7fa"/><text x="1020" y="316" text-anchor="middle" font-family="Arial" font-size="17" fill="#22313f">нет</text><text x="55" y="375" font-family="Arial" font-size="19" fill="#22313f">5. Юрий Русинов</text><rect x="650" y="345" width="190" height="38" rx="8" fill="#edf1f5"/><text x="745" y="371" text-anchor="middle" font-family="Arial" font-size="18" fill="#22313f">частично</text><rect x="900" y="345" width="240" height="38" rx="8" fill="#f5f7fa"/><text x="1020" y="371" text-anchor="middle" font-family="Arial" font-size="17" fill="#22313f">командный язык</text><text x="55" y="430" font-family="Arial" font-size="19" fill="#22313f">6. Сергей Язовский</text><rect x="650" y="400" width="190" height="38" rx="8" fill="#edf1f5"/><text x="745" y="426" text-anchor="middle" font-family="Arial" font-size="18" fill="#22313f">частично</text><rect x="900" y="400" width="240" height="38" rx="8" fill="#f5f7fa"/><text x="1020" y="426" text-anchor="middle" font-family="Arial" font-size="17" fill="#22313f">компания/платформа</text><text x="55" y="485" font-family="Arial" font-size="19" fill="#22313f">7. Егор Федоров</text><rect x="650" y="455" width="190" height="38" rx="8" fill="#edf1f5"/><text x="745" y="481" text-anchor="middle" font-family="Arial" font-size="18" fill="#22313f">да</text><rect x="900" y="455" width="240" height="38" rx="8" fill="#f5f7fa"/><text x="1020" y="481" text-anchor="middle" font-family="Arial" font-size="17" fill="#22313f">нет</text><text x="55" y="540" font-family="Arial" font-size="19" fill="#22313f">8. Илья Ливенцев</text><rect x="650" y="510" width="190" height="38" rx="8" fill="#edf1f5"/><text x="745" y="536" text-anchor="middle" font-family="Arial" font-size="18" fill="#22313f">да</text><rect x="900" y="510" width="240" height="38" rx="8" fill="#f5f7fa"/><text x="1020" y="536" text-anchor="middle" font-family="Arial" font-size="17" fill="#22313f">нет</text><text x="55" y="595" font-family="Arial" font-size="19" fill="#22313f">9. Андрей Бакленев</text><rect x="650" y="565" width="190" height="38" rx="8" fill="#edf1f5"/><text x="745" y="591" text-anchor="middle" font-family="Arial" font-size="18" fill="#22313f">да</text><rect x="900" y="565" width="240" height="38" rx="8" fill="#f5f7fa"/><text x="1020" y="591" text-anchor="middle" font-family="Arial" font-size="17" fill="#22313f">нет</text><text x="55" y="650" font-family="Arial" font-size="19" fill="#22313f">10. Александр Сергеев</text><rect x="650" y="620" width="190" height="38" rx="8" fill="#edf1f5"/><text x="745" y="646" text-anchor="middle" font-family="Arial" font-size="18" fill="#22313f">да</text><rect x="900" y="620" width="240" height="38" rx="8" fill="#f5f7fa"/><text x="1020" y="646" text-anchor="middle" font-family="Arial" font-size="17" fill="#22313f">нет</text><text x="55" y="710" font-family="Arial" font-size="18" fill="#52606d">Статусы перенесены из редакционной проверки Sostav от 13.07.2026; это не scoring IndexResearch.</text></svg>